<?xml version="1.0" standalone="no"?>
<!DOCTYPE svg PUBLIC "-//W3C//DTD SVG 20010904//EN"
 "http://www.w3.org/TR/2001/REC-SVG-20010904/DTD/svg10.dtd">
<svg version="1.0" xmlns="http://www.w3.org/2000/svg"
 width="2048.000000pt" height="1117.000000pt" viewBox="0 0 2048.000000 1117.000000"
 preserveAspectRatio="xMidYMid meet">

<g transform="translate(0.000000,1117.000000) scale(0.100000,-0.100000)"
fill="#000000" stroke="none">
<path d="M6911 8705 c-174 -49 -253 -159 -216 -300 20 -73 35 -86 76 -64 18 9
19 17 14 82 -9 99 8 131 95 175 63 33 68 34 145 28 111 -9 246 -49 317 -93 21
-13 44 -23 52 -23 8 0 18 -5 21 -11 4 -6 46 -30 94 -53 232 -114 338 -194 386
-290 27 -53 32 -116 15 -162 l-11 -28 -19 32 c-22 36 -59 43 -81 16 -11 -13
-10 -26 9 -77 25 -73 48 -169 57 -249 l6 -58 -51 0 c-90 0 -147 -47 -111 -91
17 -22 21 -22 59 -10 28 10 62 12 111 7 61 -6 71 -5 79 11 11 20 0 159 -19
252 -9 46 -9 56 3 65 56 41 85 200 54 293 -20 59 -94 154 -156 200 -25 19 -54
41 -65 49 -11 9 -45 28 -75 42 -30 14 -61 32 -68 39 -7 7 -18 13 -23 13 -5 0
-11 0 -14 1 -2 0 -42 21 -87 46 -268 149 -453 198 -597 158z"/>
<path d="M6412 8390 c-167 -49 -258 -137 -296 -285 -19 -71 -20 -121 -3 -155
26 -52 93 -26 84 33 -2 16 0 52 5 80 29 157 149 242 358 254 52 3 101 10 108
15 15 13 16 50 0 66 -19 19 -182 14 -256 -8z"/>
<path d="M7370 8317 c-74 -21 -140 -59 -177 -102 -55 -65 -56 -116 -1 -123 21
-3 32 5 55 40 20 29 47 52 88 73 52 27 68 30 149 30 107 0 140 -13 222 -88 50
-45 57 -49 79 -39 42 19 33 58 -26 115 -75 73 -143 100 -254 104 -52 2 -109
-3 -135 -10z"/>
<path d="M7073 8098 c-5 -7 -16 -29 -23 -48 -17 -45 -74 -134 -115 -183 -116
-136 -323 -236 -487 -237 -45 0 -63 -5 -78 -20 -25 -25 -25 -35 1 -61 19 -19
29 -21 94 -15 145 13 293 68 403 150 34 25 64 46 67 46 3 0 -8 -27 -25 -59
-30 -61 -61 -91 -92 -91 -10 0 -32 -13 -50 -29 -31 -27 -33 -34 -39 -117 -3
-49 -7 -76 -7 -61 -3 45 -18 63 -73 87 -186 80 -329 -93 -261 -317 38 -124
115 -227 204 -274 60 -31 98 -21 98 27 0 15 -16 31 -57 55 -195 117 -234 480
-46 433 33 -8 38 -14 48 -54 22 -85 100 -214 136 -225 14 -5 27 -1 38 9 14 14
16 43 16 193 l0 176 40 14 c56 19 98 64 134 141 35 77 63 179 56 202 -3 9 15
52 40 95 50 88 64 137 45 160 -15 18 -54 20 -67 3z"/>
<path d="M6095 7807 c-72 -109 -98 -239 -72 -363 21 -98 49 -149 174 -317 60
-80 117 -160 128 -179 22 -36 48 -46 70 -28 38 32 9 91 -139 285 -131 171
-169 273 -147 394 12 61 60 173 81 186 14 9 13 48 -2 63 -27 27 -57 13 -93
-41z"/>
<path d="M13385 7779 c-91 -15 -259 -70 -325 -106 -91 -49 -160 -104 -160
-126 0 -16 -5 -18 -31 -12 -29 7 -36 2 -93 -58 -106 -113 -196 -314 -196 -439
0 -72 20 -159 50 -219 18 -33 25 -40 47 -37 45 5 50 29 23 105 -37 103 -34
204 8 306 38 92 105 198 156 246 20 19 36 41 36 49 0 10 8 13 25 9 17 -3 37 4
58 19 112 81 231 132 388 164 141 30 297 24 414 -14 228 -74 377 -224 392
-396 6 -65 25 -87 63 -75 28 9 35 49 22 123 -36 214 -251 398 -535 458 -74 15
-260 17 -342 3z"/>
<path d="M17148 7755 c-42 -8 -117 -28 -165 -45 -48 -17 -152 -47 -231 -66
-282 -69 -408 -131 -547 -270 -135 -135 -196 -261 -202 -414 -6 -154 22 -217
87 -193 l31 11 -7 -36 c-13 -83 -36 -159 -58 -197 -14 -22 -61 -73 -106 -114
-87 -78 -116 -126 -105 -170 4 -14 26 -50 51 -80 48 -58 74 -128 74 -201 0
-63 17 -76 111 -85 107 -10 114 -17 60 -65 -27 -25 -53 -40 -70 -40 -52 0 -55
-9 -59 -153 l-4 -135 -30 -6 c-55 -11 -60 -16 -301 -345 -17 -24 -63 -74 -102
-110 -123 -116 -134 -130 -151 -188 -19 -65 -15 -114 22 -239 13 -47 29 -120
35 -162 11 -82 34 -197 44 -223 4 -10 -3 -19 -20 -27 -18 -9 -25 -19 -25 -41
0 -63 6 -62 343 48 172 55 319 101 328 101 10 0 24 -17 34 -42 21 -54 318
-870 334 -921 20 -60 83 -76 97 -24 3 15 -53 182 -161 477 -92 250 -171 469
-177 485 -33 100 -51 130 -80 133 -22 3 -29 10 -34 38 -6 32 -3 38 42 77 26
23 66 56 89 73 84 65 181 204 306 439 17 33 45 79 60 102 39 55 48 120 23 162
-21 35 -15 46 33 56 30 6 33 3 59 -42 15 -26 45 -77 67 -112 23 -35 40 -72 40
-82 -1 -11 23 -71 53 -135 30 -64 62 -146 71 -183 25 -104 29 -111 62 -111 46
0 54 25 31 101 -11 35 -20 70 -20 78 0 7 -21 57 -46 110 -26 53 -46 107 -45
120 0 13 -3 29 -8 35 -4 6 -27 46 -50 90 -92 172 -133 236 -151 236 -10 0 -76
-14 -147 -31 -70 -17 -167 -33 -215 -35 -75 -4 -94 -2 -145 19 -32 14 -83 32
-113 42 -30 10 -59 21 -63 25 -4 4 -5 53 -1 109 l7 102 32 14 c65 26 185 159
185 203 0 31 -18 39 -115 51 -144 18 -145 19 -145 51 0 57 -39 156 -80 203
-22 25 -40 51 -40 59 0 7 40 52 89 99 122 117 161 201 177 377 7 69 12 81 28
65 4 -5 43 -8 85 -8 69 0 81 -3 114 -27 19 -16 47 -28 60 -28 22 0 26 -6 36
-59 32 -163 160 -301 308 -331 61 -13 89 -7 98 20 11 35 -10 55 -73 68 -109
22 -202 114 -236 231 -22 76 -21 220 3 312 11 42 40 127 65 191 25 64 46 121
46 127 0 16 -40 39 -60 34 -36 -10 -144 -296 -156 -417 -8 -82 -16 -96 -41
-73 -52 46 -164 63 -225 33 -17 -9 -34 -14 -36 -11 -12 12 20 133 52 202 38
79 122 172 209 230 47 33 58 58 35 81 -49 49 -229 -90 -311 -241 -46 -83 -65
-145 -80 -263 l-13 -99 -13 54 c-21 82 -10 185 26 262 106 224 293 356 623
439 91 23 197 52 235 65 153 51 196 59 330 59 139 1 203 -12 295 -59 96 -49
129 -90 204 -255 15 -32 47 -37 71 -10 18 20 18 22 -1 78 -53 158 -176 266
-360 317 -84 23 -281 28 -376 10z m-1083 -2351 c31 -7 236 -87 313 -122 l43
-19 -50 -53 -51 -53 -30 29 c-16 16 -30 33 -30 38 0 4 -14 26 -31 48 -26 33
-37 39 -63 36 -26 -2 -32 -8 -34 -31 -3 -22 10 -44 54 -100 32 -40 62 -78 67
-85 7 -8 5 -18 -7 -30 -29 -33 -14 -82 25 -82 18 0 114 106 209 230 59 77 79
93 105 84 31 -12 36 -40 12 -75 -12 -19 -53 -95 -91 -169 -38 -74 -72 -137
-76 -140 -3 -3 -24 -32 -46 -65 -49 -74 -161 -187 -246 -249 -36 -25 -68 -52
-71 -59 -3 -7 1 -42 8 -79 l12 -65 -220 -73 c-121 -40 -227 -73 -235 -74 -17
-1 -46 79 -50 139 -2 22 -7 56 -12 75 -5 19 -9 44 -9 55 0 22 -8 61 -40 179
-12 44 -21 90 -21 103 0 41 38 100 92 145 91 74 152 142 223 249 120 181 168
233 205 224 8 -2 29 -7 45 -11z"/>
<path d="M7299 7640 c-51 -9 -97 -30 -146 -68 -40 -29 -45 -75 -12 -92 17 -10
29 -6 72 24 75 51 164 63 240 31 9 -4 28 -4 42 -1 34 9 35 59 3 80 -20 12
-130 38 -147 35 -3 -1 -27 -5 -52 -9z"/>
<path d="M7901 7481 c-33 -33 -36 -102 -13 -266 21 -154 20 -206 -8 -330 -6
-27 -18 -97 -26 -155 -19 -136 -39 -210 -75 -281 -54 -107 -119 -164 -224
-194 -136 -40 -317 30 -539 208 -88 70 -118 80 -136 48 -16 -30 -13 -38 28
-76 106 -97 251 -192 371 -240 307 -125 581 48 645 406 8 46 25 138 37 204 31
170 35 317 14 444 -15 92 -15 138 1 193 5 17 -27 58 -46 58 -5 0 -19 -9 -29
-19z"/>
<path d="M7333 7434 c-7 -3 -13 -19 -13 -35 0 -22 7 -32 25 -41 34 -15 57 5
53 46 -2 25 -8 31 -28 33 -14 1 -31 -1 -37 -3z"/>
<path d="M7770 7420 c-15 -29 -3 -59 26 -66 30 -8 54 11 54 40 0 46 -59 64
-80 26z"/>
<path d="M13320 7393 c-102 -125 -127 -319 -56 -454 21 -41 22 -50 10 -60 -18
-15 -18 -53 1 -69 10 -8 27 -10 52 -5 55 12 83 7 125 -22 44 -29 75 -24 85 15
5 22 0 31 -32 59 -22 19 -51 36 -65 40 -36 8 -80 51 -103 103 -43 92 -18 241
54 332 31 39 36 67 17 86 -23 23 -56 13 -88 -25z"/>
<path d="M12977 7388 c-16 -18 -46 -67 -66 -108 -35 -72 -36 -79 -36 -185 0
-95 3 -116 23 -157 30 -60 87 -118 115 -118 52 0 64 57 18 89 -15 11 -38 44
-51 73 -41 96 -12 248 65 340 62 73 -2 136 -68 66z"/>
<path d="M3013 7395 c-148 -27 -223 -60 -223 -100 0 -41 32 -49 98 -26 122 42
216 54 371 48 199 -7 379 -55 501 -132 45 -28 75 -26 85 6 12 35 -5 57 -73 93
-91 47 -226 91 -341 110 -113 19 -316 20 -418 1z"/>
<path d="M7652 7398 c-18 -18 -14 -118 7 -186 10 -33 37 -87 61 -120 23 -34
39 -66 35 -72 -4 -6 -28 -21 -53 -33 -50 -23 -65 -54 -42 -83 18 -20 44 -18
99 11 103 52 118 115 50 210 -52 71 -79 141 -79 201 0 25 -5 54 -10 65 -12 21
-50 25 -68 7z"/>
<path d="M13601 7341 c-51 -51 -63 -236 -23 -353 57 -166 191 -305 328 -340
28 -7 58 -21 68 -31 25 -24 42 -21 73 13 35 40 79 41 115 3 36 -38 48 -73 48
-142 0 -65 -35 -148 -77 -181 -23 -18 -27 -18 -56 -4 -85 44 -180 -36 -179
-152 0 -61 20 -103 64 -137 26 -21 30 -28 19 -41 -10 -12 -7 -54 13 -217 14
-111 26 -221 26 -244 0 -44 25 -91 79 -149 65 -70 226 -164 369 -216 43 -16
59 -26 53 -34 -5 -6 -48 -155 -96 -331 -48 -176 -105 -381 -126 -455 -80 -287
-83 -310 -39 -320 l25 -6 47 -419 c39 -352 50 -422 64 -432 23 -17 28 -16 53
5 l22 17 -35 310 c-20 171 -42 375 -51 455 -9 80 -20 161 -26 180 -10 32 -2
68 66 315 90 326 104 378 147 543 38 143 26 138 167 70 105 -50 176 -118 219
-209 35 -72 73 -224 93 -363 16 -110 37 -136 84 -102 19 14 19 16 1 142 -10
70 -24 150 -31 177 -11 42 -10 55 1 83 18 44 18 165 -1 237 -31 119 -76 177
-237 309 -150 123 -184 180 -213 358 -22 132 -68 224 -155 309 -36 37 -91 79
-121 95 -30 16 -56 31 -58 33 -3 2 20 29 51 61 76 77 122 153 160 264 30 86
32 103 33 228 0 117 -3 144 -24 205 -34 101 -54 135 -111 198 -89 97 -151 120
-166 60 -6 -21 2 -33 58 -83 40 -36 76 -81 97 -119 108 -203 61 -514 -103
-685 -49 -51 -125 -106 -146 -106 -5 0 -10 16 -10 37 0 30 7 42 40 70 22 20
53 62 72 100 28 58 33 77 33 143 0 63 -5 86 -31 141 -43 90 -78 114 -164 113
-36 -1 -88 -5 -116 -9 -74 -11 -137 19 -215 103 -103 110 -153 246 -132 359 6
32 17 73 24 91 13 32 13 35 -10 53 -29 24 -36 24 -60 0z m453 -1133 c23 -32
20 -84 -5 -109 -20 -20 -22 -20 -40 -3 -35 31 -19 134 21 134 5 0 16 -10 24
-22z m207 -174 c106 -32 213 -124 264 -228 13 -28 32 -96 41 -151 33 -198 72
-263 240 -401 149 -123 183 -166 210 -269 15 -56 11 -69 -13 -35 -80 113 -174
172 -413 255 -165 58 -259 100 -337 153 -55 37 -133 113 -133 130 0 26 -60
470 -65 483 -8 20 56 63 98 65 16 1 31 5 34 8 9 8 13 8 74 -10z"/>
<path d="M17842 7278 c-27 -27 -13 -54 47 -92 161 -99 247 -269 306 -606 37
-209 4 -271 -190 -365 -49 -24 -91 -42 -93 -40 -2 2 18 30 44 62 128 157 159
373 77 541 -36 72 -55 84 -85 54 -22 -22 -22 -22 -4 -69 49 -126 56 -204 28
-305 -33 -117 -116 -219 -221 -272 -61 -32 -76 -54 -55 -84 20 -29 38 -27 111
12 l62 33 -25 -36 c-32 -47 -58 -131 -84 -276 -19 -108 -19 -119 -5 -135 15
-16 12 -22 -32 -72 -234 -266 -426 -444 -569 -530 -80 -47 -104 -66 -104 -83
0 -26 18 -45 44 -45 19 0 146 65 156 80 9 12 129 110 136 110 16 0 207 186
332 324 75 83 140 151 144 151 4 0 49 -56 98 -124 50 -69 158 -195 239 -280
163 -171 387 -420 411 -456 8 -12 48 -61 89 -108 151 -176 224 -293 317 -512
225 -527 360 -1246 382 -2036 6 -201 9 -233 24 -242 12 -8 24 -7 44 2 l27 12
-6 272 c-24 986 -259 1941 -594 2409 -56 78 -397 473 -488 565 -27 27 -75 79
-105 114 -30 35 -78 84 -106 109 -28 25 -66 69 -85 98 -50 77 -198 275 -212
284 -6 4 -23 8 -35 8 -22 0 -23 3 -17 43 25 160 60 266 97 293 7 6 36 19 63
28 68 25 188 100 220 138 81 96 91 184 46 409 -54 270 -110 398 -226 515 -94
96 -171 134 -203 102z"/>
<path d="M2577 7228 c-78 -43 -168 -140 -212 -231 -69 -144 -98 -323 -115
-707 -15 -336 -27 -464 -57 -610 -14 -69 -29 -145 -33 -170 -13 -73 -103 -316
-187 -505 -49 -110 -167 -319 -267 -473 -161 -248 -218 -375 -219 -497 -2 -79
16 -140 43 -155 38 -20 80 22 60 59 -17 33 -12 143 10 206 28 81 92 199 199
364 158 245 320 580 390 806 111 365 129 479 151 970 17 378 45 546 113 683
37 75 111 152 182 190 52 28 68 59 45 88 -18 21 -38 17 -103 -18z"/>
<path d="M3892 7188 c-26 -26 -13 -54 48 -103 114 -92 178 -200 187 -316 11
-143 -57 -253 -184 -299 -58 -21 -63 -25 -63 -52 0 -62 95 -56 189 13 23 16
41 28 42 27 0 -2 2 -37 3 -78 6 -129 48 -236 132 -339 54 -66 56 -90 8 -126
-43 -33 -77 -103 -72 -148 l3 -32 -106 4 c-130 4 -149 -1 -149 -38 0 -39 66
-137 133 -197 l57 -50 1 -85 c0 -46 -4 -95 -11 -109 -18 -41 -72 -70 -148 -82
-63 -9 -82 -7 -184 17 -62 15 -125 33 -140 41 -67 35 -76 24 -162 -191 -64
-157 -65 -177 -14 -183 17 -2 30 4 40 20 16 24 90 202 103 246 8 27 6 27 96
-4 96 -33 271 -43 340 -19 123 44 156 97 168 275 5 63 6 120 4 126 -2 6 -15
16 -29 22 -28 13 -114 91 -114 103 0 5 33 9 73 9 39 0 82 3 94 6 29 8 44 54
36 110 -6 43 -4 46 39 87 55 52 68 75 68 124 0 40 -15 71 -76 149 -77 101
-113 228 -96 338 8 52 7 61 -11 79 -19 19 -19 20 -2 56 29 58 32 194 7 278
-35 113 -119 227 -223 303 -45 32 -68 37 -87 18z"/>
<path d="M16841 7172 c-18 -34 -41 -172 -41 -250 0 -149 68 -317 168 -417 l50
-50 -21 -23 c-16 -17 -19 -27 -11 -39 21 -34 40 -37 90 -16 27 11 74 23 104
26 49 4 57 2 82 -24 25 -24 28 -35 28 -93 0 -118 -52 -212 -155 -281 -62 -41
-74 -77 -31 -96 54 -25 185 84 238 198 25 53 33 84 36 149 5 92 -7 139 -46
186 -34 41 -79 58 -148 58 -101 0 -175 64 -244 212 -54 114 -63 249 -26 388 9
36 11 60 5 72 -13 24 -65 24 -78 0z"/>
<path d="M9448 6880 c-71 -38 -113 -115 -192 -353 -62 -188 -85 -282 -71 -296
16 -14 49 -21 63 -12 7 4 31 69 53 144 48 167 114 347 143 390 38 55 96 70 96
23 0 -11 -24 -95 -53 -186 -29 -91 -71 -222 -92 -293 l-40 -127 -165 2 -165 3
-5 91 c-6 102 -19 132 -73 158 -42 20 -58 20 -100 2 -59 -24 -68 -51 -73 -209
-6 -178 -23 -280 -73 -433 -52 -158 -65 -260 -51 -406 6 -62 17 -133 25 -158
53 -175 55 -268 5 -280 -23 -5 -35 -36 -147 -365 -67 -198 -122 -372 -122
-388 -1 -20 6 -31 24 -39 35 -16 57 7 80 82 10 33 21 60 24 60 3 0 36 -28 72
-62 104 -100 255 -174 376 -185 43 -4 67 -2 78 7 35 29 2 80 -52 80 -136 0
-381 159 -414 269 -12 41 -11 50 40 205 29 88 54 167 57 174 2 7 32 -17 71
-59 72 -76 154 -137 231 -172 39 -18 67 -21 160 -22 61 0 112 0 112 0 -2 0
-37 -137 -56 -215 -26 -109 -41 -174 -143 -620 -34 -146 -65 -283 -70 -304
-13 -51 0 -76 39 -76 16 0 32 5 35 10 3 6 58 234 121 508 63 273 126 543 139
599 14 57 25 111 25 120 0 10 7 36 15 58 19 53 19 100 -1 119 -27 27 -50 18
-81 -32 -81 -131 -242 -107 -437 65 -97 85 -91 69 -67 183 16 73 13 125 -15
233 -14 56 -28 122 -30 147 -21 209 -18 233 46 440 21 69 41 140 45 158 7 35
25 34 25 -2 0 -12 6 -28 13 -34 8 -9 14 -59 17 -147 6 -149 15 -174 79 -207
19 -9 41 -33 53 -57 l20 -40 -30 -38 c-16 -21 -40 -68 -52 -104 -33 -95 -17
-140 43 -125 18 4 23 13 25 40 6 88 64 175 144 217 29 15 45 36 82 109 25 50
46 102 46 114 0 31 -24 50 -54 42 -19 -5 -30 -21 -51 -78 -30 -85 -42 -103
-72 -112 -34 -11 -47 22 -29 76 7 24 19 78 26 121 7 43 20 87 29 98 15 18 19
19 61 5 25 -8 91 -29 148 -47 100 -30 132 -48 132 -72 0 -7 -13 -43 -29 -82
-40 -99 -136 -369 -156 -440 -9 -33 -23 -73 -31 -90 -53 -116 -72 -256 -38
-289 39 -40 80 -2 69 62 -4 29 5 70 46 187 28 83 62 183 75 222 13 40 28 81
34 90 5 10 33 81 62 158 60 162 66 212 29 263 -19 28 -22 40 -16 78 8 56 -8
107 -44 136 -22 18 -30 37 -40 91 l-12 69 92 291 c51 161 95 316 97 345 5 63
-13 97 -63 118 -45 19 -72 17 -117 -6z m-518 -636 c0 -80 -2 -86 -27 -109 -16
-13 -31 -25 -34 -25 -11 0 3 225 14 232 6 4 19 2 29 -3 15 -8 18 -23 18 -95z
m414 -170 c9 -3 16 -17 16 -31 l0 -25 -117 8 c-146 11 -240 11 -275 1 -35 -9
-39 14 -6 37 18 13 55 16 194 16 95 0 179 -3 188 -6z m-104 -139 c200 -19 221
-28 204 -93 -5 -16 -11 -21 -23 -17 -9 4 -68 22 -131 41 -101 31 -120 34 -152
24 -57 -16 -83 -59 -107 -174 -11 -54 -22 -100 -25 -103 -2 -3 -10 5 -16 17
-18 34 -10 298 10 310 20 13 48 12 240 -5z"/>
<path d="M3911 6858 c-5 -13 -14 -45 -20 -73 -36 -153 -155 -272 -308 -306
-29 -7 -56 -9 -59 -6 -4 3 23 48 60 98 36 51 66 98 66 105 0 16 -28 44 -44 44
-7 0 -22 -8 -32 -17 -45 -42 -174 -230 -229 -335 l-30 -57 -61 6 c-102 9 -165
-39 -200 -153 -32 -106 -11 -222 56 -318 30 -42 40 -67 40 -95 0 -123 168
-174 237 -72 69 102 -23 235 -140 204 -23 -6 -45 -9 -49 -7 -5 3 -20 28 -34
57 -35 67 -42 148 -19 216 30 92 87 106 173 41 29 -22 60 -40 70 -40 42 0 55
49 23 84 -20 21 -20 22 11 84 l31 62 56 0 c70 0 155 21 223 56 66 34 168 135
201 199 50 99 71 207 45 233 -20 20 -58 14 -67 -10z m-607 -1071 c11 -8 17
-23 14 -38 -2 -20 -8 -24 -38 -24 -30 0 -36 4 -38 24 -4 22 18 51 38 51 3 0
14 -6 24 -13z"/>
<path d="M6372 6838 c-5 -7 -17 -56 -26 -107 -10 -62 -21 -98 -31 -103 -45
-26 15 -112 213 -306 121 -119 219 -199 343 -283 l88 -59 -34 -49 c-27 -41
-74 -149 -134 -313 -6 -16 -14 -28 -19 -28 -4 0 -72 69 -151 153 -79 83 -185
195 -235 247 -51 52 -132 139 -181 194 -49 54 -99 102 -110 106 -18 7 -17 8
11 23 36 18 73 73 137 202 80 161 84 196 23 203 -24 3 -29 -4 -70 -91 -59
-127 -124 -237 -144 -244 -9 -3 -48 -30 -87 -58 -135 -100 -344 -229 -623
-384 -146 -81 -162 -99 -122 -136 20 -18 22 -18 78 9 159 78 512 289 667 399
78 56 80 57 83 33 4 -34 42 -76 404 -456 96 -102 206 -220 244 -262 89 -102
103 -102 152 -3 16 33 44 101 62 150 56 156 106 245 137 245 10 0 13 -33 13
-164 l0 -165 29 -20 c33 -24 64 -27 78 -8 5 6 33 71 63 142 51 125 70 162 70
137 0 -6 41 -66 91 -132 71 -94 95 -120 114 -120 13 0 27 6 32 13 4 6 13 99
18 205 l10 193 134 -81 c335 -201 474 -328 515 -470 33 -118 98 -535 131 -850
8 -73 17 -90 50 -90 48 0 50 17 26 218 -30 253 -87 633 -106 707 -46 178 -142
286 -418 469 -138 92 -336 206 -356 206 -9 0 -27 -6 -41 -13 -24 -12 -25 -17
-35 -167 l-10 -155 -39 54 c-41 55 -71 74 -97 60 -12 -6 -9 13 15 97 34 117
31 137 -22 142 -29 3 -32 0 -42 -40 -17 -61 -90 -268 -106 -298 -12 -22 -13
-15 -14 76 0 118 11 102 -145 198 -204 126 -388 279 -529 441 l-63 72 20 121
c11 66 17 127 14 136 -8 19 -60 22 -75 4z"/>
<path d="M7322 6818 c-19 -19 -15 -44 17 -106 84 -165 161 -213 261 -162 43
22 184 155 193 182 3 9 -2 26 -11 38 -15 18 -41 23 -207 40 -223 23 -237 24
-253 8z m291 -104 c15 -3 27 -10 27 -15 0 -16 -94 -79 -115 -76 -19 2 -85 79
-85 99 0 10 105 5 173 -8z"/>
<path d="M13002 6718 c-19 -19 -14 -53 13 -78 41 -39 32 -90 -35 -182 -53 -72
-49 -115 17 -194 38 -45 68 -55 91 -32 19 19 14 48 -16 87 -43 55 -43 56 -16
92 40 53 74 130 74 171 0 94 -82 182 -128 136z"/>
<path d="M12666 6702 c-16 -18 -16 -24 -2 -73 10 -37 16 -126 20 -284 6 -271
18 -341 81 -470 73 -150 191 -260 340 -320 58 -24 85 -29 160 -29 129 -1 241
41 374 139 126 93 173 159 139 193 -22 22 -44 12 -109 -49 -84 -79 -185 -141
-284 -174 -67 -23 -91 -26 -145 -21 -171 15 -359 177 -419 359 -36 108 -43
166 -50 417 -6 216 -9 250 -26 285 -23 46 -52 56 -79 27z"/>
<path d="M13355 6666 c-13 -19 -14 -29 -5 -45 20 -39 80 -21 80 24 0 47 -49
60 -75 21z"/>
<path d="M12882 6668 c-17 -17 -15 -53 3 -68 20 -17 62 -5 70 20 14 44 -41 80
-73 48z"/>
<path d="M12571 6616 c-17 -21 -81 -405 -81 -489 0 -122 28 -185 175 -392 19
-27 38 -64 41 -82 20 -104 -59 -193 -183 -210 -57 -7 -73 -18 -73 -48 0 -37
24 -48 84 -42 188 19 308 185 251 346 -8 23 -49 91 -91 152 -85 123 -114 193
-114 273 0 29 16 148 35 262 19 115 35 210 35 211 0 1 -7 9 -16 17 -19 20 -48
21 -63 2z"/>
<path d="M16259 6569 c-16 -30 3 -69 34 -69 29 0 47 17 47 45 0 45 -60 63 -81
24z"/>
<path d="M2950 6374 c-46 -107 -62 -194 -67 -360 -7 -221 21 -390 112 -679
118 -374 154 -532 162 -695 4 -105 2 -137 -15 -203 -38 -147 -142 -277 -300
-373 -57 -35 -67 -46 -67 -69 0 -34 23 -50 57 -42 46 12 202 132 262 203 54
64 126 190 126 222 0 17 16 12 125 -39 89 -41 126 -48 143 -26 5 6 20 55 32
107 12 52 28 115 35 140 21 70 53 201 60 246 7 46 -9 68 -46 62 -25 -3 -29
-16 -102 -290 -23 -86 -45 -160 -49 -163 -3 -4 -20 1 -37 10 -17 8 -31 13 -31
9 0 -3 -12 1 -26 11 -15 10 -38 15 -55 13 l-28 -4 5 110 c4 77 1 141 -9 206
-17 99 -101 429 -117 458 -20 35 -114 404 -135 529 -26 158 -17 379 20 493 15
47 28 103 29 125 1 38 0 40 -32 43 -30 3 -34 0 -52 -44z"/>
<path d="M3996 6307 c-26 -19 -18 -71 12 -75 13 -2 30 2 38 8 20 18 17 57 -5
70 -25 13 -24 13 -45 -3z"/>
<path d="M12954 6093 c-19 -74 134 -242 221 -243 77 0 163 64 214 160 28 52
32 66 22 86 l-11 24 -220 0 -220 0 -6 -27z m336 -71 c0 -11 -50 -57 -78 -71
-12 -7 -33 -9 -45 -5 -23 7 -87 62 -87 76 0 4 47 8 105 8 58 0 105 -4 105 -8z"/>
<path d="M17372 5988 c-33 -33 -8 -64 161 -205 48 -41 83 -43 99 -7 12 26 10
30 -42 77 -158 143 -190 163 -218 135z"/>
<path d="M5045 5754 c-156 -109 -232 -204 -260 -326 -13 -59 -15 -109 -11
-272 3 -111 2 -223 -3 -251 -5 -27 -25 -131 -44 -230 -20 -99 -38 -198 -41
-220 -9 -60 -12 -76 -46 -253 -18 -90 -29 -174 -26 -187 10 -38 66 -44 80 -9
5 13 37 190 81 454 7 41 23 120 34 175 11 55 23 116 25 135 3 19 12 74 20 121
11 63 15 143 13 300 l-2 214 33 67 c36 74 111 150 220 221 65 43 84 75 62 102
-21 26 -52 16 -135 -41z"/>
<path d="M7305 5633 c-22 -19 -74 -60 -116 -89 l-77 -54 6 -108 c9 -207 -32
-1055 -73 -1472 -18 -188 -29 -269 -56 -423 -23 -127 -19 -147 26 -147 32 0
43 17 59 96 59 285 136 1326 136 1850 l0 161 53 36 c72 51 147 122 147 140 0
21 -27 47 -48 47 -9 -1 -35 -17 -57 -37z"/>
<path d="M2572 5608 c-12 -24 -31 -70 -43 -103 -12 -33 -25 -67 -29 -76 -19
-37 -31 -183 -27 -314 4 -157 34 -310 87 -455 17 -47 38 -107 46 -135 9 -27
19 -54 23 -60 18 -24 33 -128 30 -201 -3 -65 -10 -92 -34 -139 -35 -69 -96
-120 -154 -130 -48 -8 -65 -26 -57 -60 9 -34 43 -40 110 -21 44 13 69 29 114
74 72 70 102 141 110 256 7 108 -11 193 -79 381 -75 209 -84 241 -104 360 -29
170 2 411 69 543 39 77 32 122 -20 122 -15 0 -27 -12 -42 -42z"/>
<path d="M13835 5594 c-64 -47 -163 -91 -245 -111 -98 -24 -255 -21 -367 7
-139 35 -136 42 -104 -264 15 -148 22 -182 37 -193 24 -17 30 -17 55 8 13 13
19 29 16 42 -8 34 -31 306 -26 311 2 2 38 -2 79 -10 206 -37 416 8 588 124 64
44 77 63 62 92 -7 14 -31 30 -43 30 -1 0 -25 -16 -52 -36z"/>
<path d="M5074 5534 c-20 -29 -27 -16 90 -152 38 -43 110 -139 160 -213 75
-111 96 -135 118 -137 22 -3 30 2 40 23 11 23 5 35 -77 157 -133 197 -262 348
-297 348 -10 0 -25 -12 -34 -26z"/>
<path d="M6560 5331 c-80 -25 -123 -67 -278 -275 -54 -72 -123 -157 -152 -189
-50 -55 -157 -137 -178 -137 -5 0 -15 44 -22 98 -32 257 -59 341 -130 388 -89
61 -206 -9 -201 -119 1 -23 3 -239 4 -479 1 -309 5 -440 13 -448 6 -6 24 -10
40 -8 l29 3 6 145 c10 234 9 639 -1 713 -16 109 21 159 75 101 33 -36 41 -68
71 -284 14 -102 29 -195 34 -207 15 -37 56 -29 150 29 110 68 190 149 332 339
136 182 194 239 238 239 36 0 49 -23 30 -54 -8 -11 -36 -57 -62 -101 -59 -99
-154 -218 -265 -336 -80 -83 -85 -91 -75 -114 8 -17 20 -25 38 -25 25 0 51 21
229 183 369 337 402 364 426 340 30 -30 0 -67 -363 -451 -117 -123 -134 -152
-106 -180 7 -7 20 -12 30 -12 9 0 88 71 175 158 262 261 278 275 302 267 50
-16 21 -62 -186 -299 -153 -173 -180 -214 -153 -231 19 -12 10 -25 -17 -25
-16 -1 -39 -7 -53 -15 -37 -21 -44 -19 -98 34 -53 52 -97 71 -164 71 -53 0
-84 15 -100 47 -15 33 -58 43 -78 18 -19 -23 3 -89 38 -113 39 -27 59 -33 136
-42 64 -7 72 -11 112 -53 59 -60 92 -73 147 -57 65 18 107 23 107 12 0 -5 -48
-38 -107 -73 -60 -34 -144 -84 -188 -109 -44 -26 -110 -64 -147 -84 -71 -40
-84 -56 -67 -88 9 -17 6 -26 -23 -55 -77 -81 -215 -108 -315 -61 -99 47 -170
153 -180 271 -6 70 -16 87 -48 87 -22 0 -78 -72 -270 -346 -12 -17 15 -125 49
-199 43 -93 146 -174 221 -175 34 0 49 8 57 31 10 26 -18 56 -58 62 -55 9
-103 52 -136 122 -51 110 -50 118 28 228 65 92 84 111 84 86 0 -5 12 -35 27
-65 34 -70 106 -145 174 -181 50 -26 62 -28 172 -28 64 0 117 -1 117 -2 0 -1
-52 -101 -115 -222 -63 -120 -115 -225 -115 -233 0 -21 21 -38 47 -38 31 0 34
5 258 435 37 72 83 157 101 191 19 33 34 69 34 80 0 13 26 33 88 68 48 27 185
107 304 179 180 107 221 136 244 170 14 23 57 83 94 132 85 113 110 160 110
208 0 43 -22 91 -47 105 -15 9 -14 13 5 54 12 24 22 59 22 77 0 32 -24 91 -38
91 -4 0 -15 7 -26 15 -18 14 -18 16 -1 51 34 72 3 159 -65 186 -39 15 -104 -9
-163 -60 -29 -25 -63 -55 -75 -66 -24 -21 -24 -21 2 28 28 53 33 98 13 135
-25 49 -94 78 -147 62z m414 -647 c9 -3 16 -16 16 -29 0 -23 -21 -57 -124
-200 -98 -136 -102 -138 -174 -109 l-39 15 52 52 c28 29 96 103 150 165 54 61
99 112 101 112 1 0 9 -3 18 -6z"/>
<path d="M12994 5269 c-84 -67 -141 -84 -401 -124 -242 -36 -349 -77 -420
-160 -42 -49 -211 -392 -338 -686 -51 -119 -114 -258 -140 -309 -40 -79 -45
-97 -36 -117 8 -17 19 -23 40 -23 28 0 33 6 82 108 28 59 87 190 131 292 106
246 298 637 333 678 56 67 144 96 415 136 91 14 179 28 195 31 l30 6 1 -163
c1 -187 17 -299 67 -468 62 -209 202 -529 236 -542 28 -10 51 11 209 190 327
372 782 951 782 996 0 21 -45 50 -63 39 -8 -4 -77 -91 -152 -193 -199 -266
-465 -590 -717 -874 -34 -38 -31 -41 -99 119 -136 320 -189 571 -174 828 4 64
11 117 15 117 17 0 100 83 100 100 0 21 -25 50 -44 50 -7 0 -31 -14 -52 -31z"/>
<path d="M8089 5194 c-7 -8 -20 -81 -30 -162 -10 -81 -34 -280 -53 -442 -34
-277 -35 -296 -19 -307 22 -17 48 -16 62 1 7 8 28 142 47 298 19 156 43 353
53 438 18 141 18 157 4 173 -20 21 -46 22 -64 1z"/>
<path d="M13710 5079 c-65 -59 -167 -113 -247 -130 -33 -6 -93 -9 -140 -6 -69
4 -84 2 -97 -12 -20 -22 -20 -45 -1 -61 26 -22 183 -25 270 -5 122 27 260 108
316 186 18 25 20 35 10 55 -17 37 -49 29 -111 -27z"/>
<path d="M17581 5095 c-40 -14 -86 -32 -102 -41 -16 -8 -31 -13 -33 -12 -5 3
-54 -35 -121 -92 -37 -32 -83 -82 -171 -185 -46 -53 -67 -105 -55 -131 7 -17
19 -24 38 -24 24 0 34 9 62 56 74 124 216 262 326 316 28 14 86 31 130 37 133
21 246 -10 359 -97 27 -20 56 -41 65 -47 9 -5 55 -49 102 -97 48 -49 91 -88
96 -88 18 0 53 32 53 49 0 10 -52 66 -117 126 -65 60 -125 116 -133 125 -23
26 -109 74 -175 99 -41 16 -90 24 -155 27 -83 4 -104 2 -169 -21z"/>
<path d="M4041 5076 c-9 -11 -11 -38 -7 -93 15 -211 17 -302 9 -318 -8 -14
-21 0 -76 77 -84 119 -164 197 -249 243 -82 45 -123 45 -123 1 0 -24 8 -33 55
-60 67 -38 125 -90 195 -176 57 -70 165 -241 205 -325 13 -27 30 -57 38 -67 7
-9 15 -22 16 -30 5 -23 25 -69 91 -203 77 -156 176 -284 346 -452 114 -112
291 -264 361 -311 36 -23 39 -24 63 -8 47 31 40 42 -120 171 -141 114 -379
350 -453 450 -45 60 -147 253 -246 465 -14 30 -31 63 -38 72 -10 14 -9 26 4
65 10 26 20 64 23 85 9 49 -14 367 -28 398 -14 29 -48 37 -66 16z"/>
<path d="M12536 5008 c-8 -13 -22 -61 -31 -108 -19 -98 -92 -423 -130 -585
-14 -60 -42 -164 -62 -230 -52 -171 -50 -237 11 -450 26 -88 51 -200 57 -250
6 -49 13 -100 15 -112 5 -27 36 -38 65 -22 21 11 22 16 16 108 -4 57 -17 135
-33 191 -68 245 -76 278 -76 340 0 40 8 90 22 130 35 106 86 309 145 580 30
140 62 284 70 320 12 57 12 68 -1 87 -19 29 -50 29 -68 1z"/>
<path d="M16828 4878 c-77 -116 -178 -283 -178 -295 0 -5 -8 -18 -17 -29 -24
-27 -41 -53 -58 -91 -8 -17 -19 -34 -25 -38 -6 -4 -17 -23 -26 -43 -8 -20 -23
-46 -33 -57 -9 -11 -41 -60 -70 -108 -47 -78 -52 -92 -42 -113 8 -17 19 -24
40 -24 27 0 36 11 115 141 47 78 86 147 86 154 0 7 11 23 24 36 13 13 34 44
46 69 12 25 26 47 30 50 4 3 13 17 21 32 8 16 45 78 83 140 122 196 134 228
97 248 -11 5 -24 10 -29 10 -5 0 -34 -37 -64 -82z"/>
<path d="M2269 4766 c-180 -50 -431 -279 -537 -491 -75 -150 -101 -292 -112
-615 -10 -301 -17 -369 -75 -810 -25 -184 -51 -391 -60 -460 -18 -151 -41
-724 -32 -763 9 -32 27 -42 61 -33 l23 6 7 237 c9 333 33 602 81 923 16 111
61 466 70 560 3 36 10 175 15 310 13 360 44 506 141 666 27 45 74 107 104 137
30 30 55 60 55 66 0 6 4 11 8 11 5 0 39 24 76 54 127 101 243 143 343 125 56
-11 75 1 71 45 -2 22 -9 32 -28 37 -41 11 -161 8 -211 -5z"/>
<path d="M17053 4578 c-6 -7 -34 -60 -63 -118 -30 -58 -63 -118 -74 -135 -12
-16 -26 -39 -32 -50 -6 -11 -76 -139 -156 -285 -196 -358 -190 -347 -179 -369
12 -22 35 -33 56 -25 18 7 48 60 375 659 15 28 55 100 89 162 62 114 70 140
49 161 -16 16 -53 15 -65 0z"/>
<path d="M2103 4312 c-37 -7 -96 -26 -130 -42 -51 -24 -63 -33 -63 -52 0 -54
35 -60 129 -21 57 24 80 27 171 28 118 0 156 -10 230 -61 52 -36 78 -42 98
-22 34 34 -6 87 -103 136 -90 45 -212 58 -332 34z"/>
<path d="M15072 4298 c-19 -19 -16 -47 48 -499 137 -975 149 -1120 103 -1185
-46 -64 -99 -76 -657 -149 -440 -57 -635 -79 -641 -73 -3 3 8 34 25 69 24 51
30 77 30 129 0 85 -10 119 -65 214 -25 44 -43 82 -40 85 5 4 147 39 370 90
299 69 361 85 373 93 17 14 15 53 -3 68 -18 15 -28 13 -230 -33 -489 -113
-630 -148 -637 -159 -15 -25 -7 -46 56 -141 111 -166 115 -250 18 -378 -26
-34 -52 -69 -59 -78 -15 -19 -7 -57 13 -65 23 -9 589 58 1062 125 308 43 369
60 426 115 65 63 71 83 71 239 -1 112 -11 216 -53 525 -103 753 -139 989 -151
1004 -16 19 -42 21 -59 4z"/>
<path d="M3902 4248 c-23 -23 -9 -122 58 -413 80 -351 78 -516 -9 -800 -10
-33 -27 -108 -36 -167 l-18 -108 -38 6 c-25 4 -44 2 -54 -6 -20 -17 -19 -66 1
-74 9 -3 204 -46 433 -95 229 -49 483 -106 565 -126 l149 -36 77 20 c96 24
162 57 265 132 44 31 132 85 195 119 63 34 141 78 173 97 70 44 137 54 188 28
120 -61 544 -410 580 -477 11 -21 -4 -58 -24 -58 -7 0 -20 17 -29 38 -19 41
-313 340 -366 372 -18 11 -40 20 -50 20 -44 0 -58 -61 -19 -81 22 -12 304
-283 340 -327 15 -18 17 -26 7 -37 -20 -24 -48 -18 -105 22 -51 36 -53 39 -58
93 l-6 55 -148 143 c-167 161 -194 176 -264 149 -44 -18 -184 -132 -194 -159
-3 -10 -1 -26 5 -38 19 -36 55 -24 127 41 106 96 96 97 210 -9 167 -154 186
-177 179 -206 -5 -19 -13 -26 -30 -26 -28 0 -157 83 -200 129 -17 17 -37 31
-47 31 -24 0 -227 -161 -349 -276 -113 -107 -210 -162 -329 -185 -121 -23
-410 -5 -1364 87 -255 24 -270 25 -288 8 -23 -20 -25 -47 -5 -63 9 -8 125 -22
283 -37 147 -13 390 -35 538 -49 410 -38 515 -45 675 -45 169 0 160 5 160 -91
0 -33 5 -69 10 -80 10 -19 34 -19 1184 -19 927 0 1176 3 1184 13 5 6 52 102
105 212 52 110 129 270 170 355 40 85 134 281 207 435 73 154 137 284 141 289
5 5 14 4 22 -2 10 -9 208 -13 731 -14 l718 -3 184 -549 c187 -560 196 -581
256 -612 27 -14 89 -19 1578 -119 283 -19 652 -44 820 -55 401 -28 424 -27
574 34 171 69 466 201 714 318 199 95 212 103 212 128 0 15 -6 32 -13 38 -20
17 -1036 76 -1053 61 -18 -15 -18 -53 0 -68 9 -8 156 -21 408 -36 216 -14 400
-25 407 -25 30 0 -9 -21 -244 -128 -320 -146 -526 -231 -588 -244 -41 -8 -150
-4 -517 21 -1079 72 -1526 102 -1880 126 -297 21 -378 29 -391 41 -10 9 -57
133 -105 277 -48 144 -190 568 -316 942 -126 373 -226 684 -224 691 2 6 15 10
28 8 13 -2 228 -20 478 -39 489 -38 986 -77 1600 -125 212 -17 423 -33 470
-36 111 -8 151 -19 178 -47 13 -14 74 -163 146 -358 68 -184 145 -390 170
-459 325 -878 354 -955 374 -968 28 -18 62 0 62 33 0 13 -47 151 -105 306 -58
156 -105 288 -105 295 0 6 48 57 107 112 l108 100 75 7 c77 7 110 24 110 55 0
35 -26 43 -111 36 -44 -4 -93 -12 -109 -19 -15 -7 -69 -50 -120 -97 -51 -47
-95 -84 -99 -83 -3 1 -11 15 -18 31 -11 27 -8 34 33 96 25 37 55 71 67 76 12
5 69 18 127 30 57 11 111 27 119 34 17 17 8 61 -14 70 -13 5 -230 -33 -285
-50 -8 -2 -33 -30 -55 -61 l-39 -57 -23 53 -23 53 29 37 30 38 130 -5 c141 -5
161 0 161 44 0 13 -8 27 -17 32 -10 5 -78 12 -152 15 -138 6 -156 3 -197 -34
-21 -19 -21 -19 -37 23 -9 23 -16 42 -14 43 12 9 268 45 319 45 62 0 70 -3
144 -51 121 -79 215 -122 385 -177 159 -52 264 -72 370 -72 53 0 61 3 68 23 6
14 5 29 -4 42 -10 17 -28 21 -111 28 -101 8 -236 41 -394 99 -109 39 -145 57
-258 130 -50 33 -109 64 -130 69 -42 10 -180 -3 -322 -31 -67 -13 -97 -15
-102 -7 -4 6 -48 123 -99 259 -86 230 -96 252 -135 288 -23 21 -59 43 -81 48
-21 5 -256 26 -523 46 -267 20 -564 44 -660 51 -96 8 -377 31 -625 50 -247 19
-560 43 -693 54 -134 11 -251 17 -260 14 -39 -14 -62 -46 -62 -87 0 -26 43
-171 115 -386 63 -190 115 -350 115 -357 0 -10 -141 -13 -695 -13 -382 0 -695
2 -695 5 0 2 63 136 140 297 78 161 146 311 151 334 15 57 -3 117 -49 164 -32
33 -281 181 -500 297 -90 47 -164 43 -213 -13 -32 -37 -699 -1355 -699 -1382
0 -26 23 -44 50 -40 25 4 24 2 419 783 156 308 290 568 299 578 24 27 51 21
152 -36 52 -30 165 -93 250 -141 180 -102 202 -120 202 -167 0 -23 -56 -151
-177 -404 -98 -203 -226 -471 -285 -595 -59 -124 -165 -344 -235 -490 -69
-146 -149 -313 -177 -372 l-51 -108 -1114 0 -1113 0 0 38 0 37 1050 -3 1049
-2 17 24 c8 14 12 30 8 37 -5 8 0 10 17 6 13 -3 29 -3 36 1 12 7 245 470 659
1311 255 516 256 519 204 536 -11 3 -25 3 -31 -1 -20 -12 -901 -1794 -897
-1812 5 -16 -60 -17 -991 -12 -548 3 -998 7 -1001 8 -2 1 29 24 70 51 41 27
111 86 155 131 44 45 115 109 158 141 l79 59 41 -31 c133 -100 189 -125 248
-109 34 9 41 7 103 -35 74 -50 126 -58 180 -30 15 8 47 15 70 15 75 0 136 58
136 130 0 43 -14 66 -78 132 l-56 57 29 11 c15 6 29 9 30 8 7 -8 65 -126 65
-133 0 -20 54 -75 84 -86 18 -7 41 -25 50 -40 58 -99 179 -100 227 -2 18 37
21 55 15 107 l-6 61 41 0 c34 0 46 6 70 33 38 42 41 113 7 160 -173 239 -310
392 -384 427 -42 20 -163 20 -296 0 -146 -22 -305 -22 -408 -1 -107 23 -267
77 -440 149 -74 31 -177 72 -228 92 -88 34 -95 35 -118 20 -27 -17 -30 -34
-11 -57 13 -17 496 -212 622 -251 201 -63 370 -75 593 -43 173 25 231 22 278
-12 54 -40 174 -174 174 -195 0 -4 -8 -7 -18 -7 -24 0 -42 -19 -42 -46 0 -13
18 -96 40 -186 42 -168 45 -220 13 -232 -10 -4 -24 1 -36 13 -20 19 -20 20 2
47 39 50 28 104 -73 369 -66 171 -83 204 -111 217 -17 8 -64 8 -165 1 -144 -9
-160 -15 -160 -53 0 -37 16 -43 101 -40 46 2 106 4 134 4 l49 1 33 -78 c55
-133 126 -346 119 -362 -3 -10 -15 -15 -28 -13 -32 4 -120 183 -123 251 -5 90
-33 111 -199 151 -114 28 -141 27 -151 -3 -14 -45 11 -60 150 -91 104 -22 127
-41 95 -75 -19 -20 -25 -21 -83 -13 -67 10 -87 20 -160 81 -96 80 -233 177
-284 203 -45 22 -63 26 -116 22 -35 -2 -80 -12 -102 -24 -140 -70 -372 -205
-447 -259 -94 -68 -176 -105 -248 -112 -31 -3 -95 7 -200 32 -163 38 -482 109
-662 146 -59 12 -112 25 -119 29 -14 10 20 211 56 323 43 135 58 254 52 422
-5 132 -11 174 -52 350 -26 110 -54 245 -63 300 -10 55 -21 106 -25 113 -10
15 -49 16 -65 0z m2982 -1599 c60 -76 70 -109 35 -109 -30 0 -76 53 -84 97 -3
21 -9 48 -12 61 -3 12 -3 22 0 22 3 0 31 -32 61 -71z"/>
<path d="M15472 4008 c-7 -7 -12 -20 -12 -29 0 -10 29 -118 64 -241 65 -223
139 -492 215 -773 59 -221 127 -466 159 -580 16 -55 44 -152 62 -215 18 -63
38 -121 43 -127 14 -19 65 -16 75 5 7 12 -13 96 -68 287 -43 149 -143 511
-223 805 -173 634 -240 859 -258 871 -20 12 -43 11 -57 -3z"/>
<path d="M18095 4012 c-15 -10 -9 -1 -515 -832 -96 -157 -213 -348 -260 -425
-47 -77 -150 -247 -230 -378 -80 -131 -163 -261 -186 -289 -85 -103 -219 -190
-344 -223 -127 -34 -282 -12 -390 54 -55 34 -86 37 -103 9 -19 -30 7 -62 80
-101 94 -49 170 -68 279 -68 172 0 309 54 467 184 33 27 47 34 47 23 0 -27 86
-148 127 -180 36 -27 127 -39 197 -27 68 12 100 32 134 82 19 28 33 36 78 45
38 7 64 20 87 42 28 27 37 30 74 25 23 -3 58 -2 78 1 42 8 98 54 114 95 11 25
19 29 61 33 57 6 111 42 136 90 27 52 13 96 -80 250 -47 78 -83 144 -81 146 3
4 397 -226 785 -458 52 -31 235 -139 405 -240 171 -100 380 -224 465 -275 168
-100 213 -125 229 -125 17 0 42 46 35 63 -3 9 -65 51 -137 93 -73 43 -208 123
-302 179 -93 56 -246 147 -340 202 -93 56 -388 230 -654 388 -266 157 -491
287 -500 287 -9 0 -26 -3 -38 -7 -16 -5 -23 -2 -27 13 -10 32 -81 90 -125 103
-54 16 -131 -1 -196 -42 -26 -16 -49 -29 -50 -27 -2 2 72 127 164 278 205 336
398 652 504 825 44 71 80 140 80 153 0 35 -40 54 -68 34z m-410 -1346 c32 -36
244 -384 259 -425 13 -36 -34 -75 -78 -67 -17 4 -36 12 -42 19 -7 6 -51 93
-98 191 -47 99 -91 183 -99 187 -21 12 -56 -1 -62 -22 -4 -13 27 -91 89 -224
53 -112 96 -213 96 -224 0 -26 -46 -61 -80 -61 -49 0 -70 32 -137 212 -69 184
-87 214 -122 203 -40 -12 -35 -45 33 -226 36 -95 66 -186 66 -201 0 -35 -37
-62 -73 -53 -20 6 -27 17 -42 73 -21 80 -83 252 -97 270 -14 17 -53 15 -68 -3
-15 -18 -13 -24 44 -190 58 -169 64 -212 37 -246 -25 -33 -81 -43 -149 -28
-50 10 -73 33 -134 131 -10 16 -27 28 -38 28 -26 0 -25 8 10 49 l29 34 38 -77
c21 -42 46 -79 56 -82 20 -6 57 21 57 41 0 7 -20 55 -45 108 -25 53 -45 102
-45 109 1 7 49 91 108 186 108 173 108 174 159 191 28 9 73 36 101 59 65 54
128 84 167 77 17 -3 43 -19 60 -39z"/>
<path d="M2824 3745 c-19 -29 -26 -15 100 -185 282 -382 599 -737 705 -788 32
-16 34 -16 52 7 10 13 19 28 19 33 0 6 -26 33 -57 61 -163 144 -390 403 -604
689 -67 90 -131 173 -142 186 -27 29 -53 28 -73 -3z"/>
<path d="M1846 3607 c-10 -8 -18 -24 -18 -38 0 -13 37 -193 82 -399 265 -1223
270 -1247 270 -1274 -1 -16 -26 -36 -108 -85 -339 -203 -905 -556 -909 -568
-3 -7 -2 -24 1 -38 5 -18 13 -25 31 -25 15 0 172 91 387 223 520 320 614 377
621 377 4 0 12 -20 18 -45 18 -71 35 -74 142 -25 105 49 191 80 222 80 13 0
66 -11 119 -25 222 -58 386 -11 538 154 63 68 143 204 168 286 18 58 78 176
103 204 12 12 52 43 90 67 58 38 67 47 67 74 0 22 -6 33 -23 41 -19 9 -34 3
-98 -40 -120 -79 -155 -128 -232 -331 -66 -172 -168 -293 -295 -353 -92 -43
-169 -46 -299 -13 -56 14 -120 26 -143 26 -34 0 -140 -34 -261 -85 -14 -5 -19
3 -27 47 -5 29 -49 233 -97 453 -48 220 -131 604 -185 854 -104 487 -109 499
-164 458z"/>
<path d="M4885 3257 c-143 -56 -256 -220 -299 -436 -26 -125 -28 -168 -11
-185 38 -37 85 0 85 67 0 63 34 188 74 271 62 128 152 206 240 206 20 0 46 5
57 10 21 12 25 50 7 68 -15 15 -113 14 -153 -1z"/>
<path d="M10795 2940 c-68 -15 -107 -61 -112 -134 -11 -151 184 -216 268 -90
25 38 25 119 0 157 -35 53 -96 80 -156 67z m69 -106 c51 -50 -23 -125 -76 -77
-36 33 -13 93 37 93 13 0 31 -7 39 -16z"/>
<path d="M2254 2689 c-17 -19 -17 -22 -2 -49 9 -15 136 -190 283 -389 274
-371 287 -385 323 -349 24 24 11 54 -66 158 -43 58 -163 220 -266 360 -103
140 -197 263 -208 273 -26 22 -41 22 -64 -4z"/>
<path d="M12822 2530 c-107 -95 -125 -127 -83 -150 28 -15 56 0 131 70 36 33
69 60 74 60 4 0 34 -15 65 -34 137 -83 273 -138 386 -156 69 -11 271 13 294
35 18 17 7 62 -17 69 -9 3 -44 1 -77 -4 -184 -30 -318 3 -540 135 -60 36 -114
65 -120 65 -6 0 -57 -41 -113 -90z"/>
<path d="M7026 2394 c-9 -8 -16 -21 -16 -28 0 -6 44 -77 98 -156 105 -157 126
-174 158 -125 16 25 16 26 -67 153 -118 181 -134 195 -173 156z"/>
<path d="M15026 2048 c-16 -27 -264 -488 -320 -598 -22 -41 -45 -82 -51 -90
-18 -22 -45 -77 -45 -92 1 -35 16 -38 180 -44 90 -2 166 -7 168 -9 2 -2 -10
-27 -27 -55 -33 -54 -39 -91 -17 -109 10 -8 368 -10 1341 -9 1227 3 1329 4
1338 20 8 12 -11 85 -82 315 -52 164 -98 306 -103 316 -18 35 -81 16 -80 -24
0 -13 37 -138 81 -278 45 -140 79 -256 78 -258 -2 -2 -2390 -5 -2470 -3 -4 0
3 21 16 46 l23 46 1115 -1 c1113 -2 1115 -2 1134 19 18 20 17 23 -33 158 -28
75 -69 180 -90 232 -38 94 -39 95 -73 95 -29 0 -34 -4 -37 -27 -2 -15 25 -100
63 -198 36 -94 63 -175 60 -181 -6 -9 -2465 -14 -2465 -5 0 6 62 117 81 147 9
13 76 135 149 272 l133 247 334 0 333 0 11 24 c8 17 8 29 0 45 -12 21 -15 21
-371 21 l-360 0 -14 -22z"/>
</g>
</svg>
