<?xml version="1.0" standalone="no"?>
<!DOCTYPE svg PUBLIC "-//W3C//DTD SVG 20010904//EN"
 "http://www.w3.org/TR/2001/REC-SVG-20010904/DTD/svg10.dtd">
<svg version="1.0" xmlns="http://www.w3.org/2000/svg"
 width="740.000000pt" height="601.000000pt" viewBox="0 0 740.000000 601.000000"
 preserveAspectRatio="xMidYMid meet">

<g transform="translate(0.000000,601.000000) scale(0.100000,-0.100000)"
fill="#000000" stroke="none">
<path d="M1100 5245 c0 -25 5 -45 10 -45 6 0 10 20 10 45 0 25 -4 45 -10 45
-5 0 -10 -20 -10 -45z"/>
<path d="M1398 5265 c-52 -29 -56 -105 -7 -149 26 -23 38 -27 68 -22 79 12
108 101 52 157 -33 32 -70 37 -113 14z m105 -37 c39 -46 6 -108 -57 -108 -64
0 -87 69 -40 116 29 30 67 27 97 -8z"/>
<path d="M1002 5188 c5 -15 77 -18 81 -3 1 6 -18 11 -42 13 -32 2 -42 0 -39
-10z"/>
<path d="M1132 5188 c5 -15 77 -18 81 -3 1 6 -18 11 -42 13 -32 2 -42 0 -39
-10z"/>
<path d="M1100 5125 c0 -25 5 -45 10 -45 6 0 10 20 10 45 0 25 -4 45 -10 45
-5 0 -10 -20 -10 -45z"/>
<path d="M5839 4915 c-61 -33 -59 -129 3 -161 96 -50 185 70 109 147 -33 32
-70 37 -112 14z m75 -16 c13 -7 30 -24 36 -39 28 -68 -57 -123 -112 -73 -36
32 -17 98 32 116 8 3 16 6 17 6 1 1 13 -4 27 -10z"/>
<path d="M747 4763 c-9 -8 -9 -46 -1 -67 10 -27 24 -7 24 35 0 37 -8 48 -23
32z"/>
<path d="M652 4668 c4 -10 26 -13 68 -9 6 1 10 6 10 11 0 6 -18 10 -41 10 -27
0 -39 -4 -37 -12z"/>
<path d="M780 4670 c0 -10 7 -12 35 -12 34 0 45 3 45 12 0 6 -18 10 -40 10
-22 0 -40 -4 -40 -10z"/>
<path d="M3860 4663 c-8 -3 -46 -30 -85 -59 -41 -31 -87 -57 -112 -62 -54 -12
-94 -42 -118 -86 -11 -20 -25 -36 -33 -36 -31 0 -71 -32 -91 -73 -30 -62 -27
-123 9 -192 20 -38 30 -72 30 -100 0 -95 83 -286 151 -350 50 -46 80 -57 157
-57 76 1 156 35 198 85 32 38 89 157 99 207 13 69 15 72 33 58 14 -10 14 -9
-1 8 -24 28 -21 118 4 160 23 38 24 74 4 142 l-16 51 46 62 c47 64 55 101 23
107 -14 3 -50 -11 -121 -46 -5 -2 5 15 22 38 20 28 31 55 31 77 0 30 -3 33
-28 33 -27 0 -101 -44 -117 -69 -12 -20 -26 -12 -15 8 30 57 -13 115 -70 94z
m-89 -334 c42 -19 61 -21 125 -16 71 6 77 5 100 -18 16 -16 24 -35 24 -59 0
-20 7 -54 16 -76 19 -48 14 -137 -12 -214 -19 -56 -27 -61 -59 -40 -21 14 -38
15 -93 9 -83 -9 -108 -9 -200 0 -61 7 -75 5 -91 -9 -18 -17 -20 -16 -44 26
-16 27 -29 72 -36 121 -14 104 -15 101 14 135 14 17 25 38 25 47 0 9 7 32 16
50 29 63 126 82 215 44z m115 -464 c61 -25 44 -75 -38 -110 -68 -28 -146 -15
-200 33 -25 21 -22 58 4 76 28 20 188 21 234 1z"/>
<path d="M3625 4203 c-11 -2 -30 -6 -42 -9 -15 -3 -23 -12 -23 -25 0 -19 4
-21 38 -15 20 3 56 6 80 6 34 0 42 3 42 19 0 13 -10 20 -31 25 -17 3 -34 5
-38 5 -3 -1 -15 -3 -26 -6z"/>
<path d="M3860 4201 c-14 -4 -25 -13 -25 -21 0 -11 18 -17 67 -22 37 -3 72 -9
78 -13 6 -4 10 4 10 19 0 15 -7 27 -17 30 -38 11 -89 14 -113 7z"/>
<path d="M3624 4085 c-8 -31 10 -55 27 -38 14 14 8 55 -8 60 -7 3 -15 -7 -19
-22z"/>
<path d="M3896 4092 c-8 -24 3 -54 18 -49 15 5 14 59 -1 64 -6 2 -14 -5 -17
-15z"/>
<path d="M1754 4641 c-90 -55 -131 -206 -83 -310 18 -42 19 -47 4 -83 -17 -43
-45 -262 -45 -357 0 -132 92 -231 214 -231 l28 0 -22 35 c-17 28 -19 38 -10
55 20 38 29 122 18 177 -6 28 -7 68 -4 88 6 32 13 39 54 57 111 47 232 109
260 133 l30 25 21 -29 c12 -16 43 -43 70 -60 52 -31 58 -42 81 -153 6 -32 17
-61 23 -64 7 -4 9 -4 5 1 -4 4 -2 15 5 23 9 13 9 14 0 8 -10 -5 -13 2 -13 28
0 44 18 56 42 26 24 -29 23 -76 -2 -125 -17 -33 -18 -41 -7 -53 12 -11 17 0
31 70 38 195 5 355 -99 475 -46 54 -148 105 -221 111 -54 4 -55 5 -75 52 -38
88 -93 120 -208 120 -47 0 -75 -5 -97 -19z m23 -620 c22 -19 29 -48 49 -201 6
-42 4 -46 -24 -62 -17 -10 -42 -18 -56 -18 -56 0 -88 77 -47 114 17 16 18 20
5 44 -8 15 -14 46 -14 69 0 67 41 92 87 54z"/>
<path d="M1712 3848 c-21 -21 -14 -66 13 -84 23 -15 27 -15 50 0 30 20 35 66
7 66 -10 0 -27 7 -38 15 -16 10 -24 11 -32 3z"/>
<path d="M744 4608 c0 -24 6 -43 11 -43 6 0 11 19 13 43 2 31 0 42 -11 42 -11
0 -15 -11 -13 -42z"/>
<path d="M5810 4505 c0 -25 5 -45 10 -45 6 0 10 20 10 45 0 25 -4 45 -10 45
-5 0 -10 -20 -10 -45z"/>
<path d="M5715 4450 c-3 -5 0 -13 9 -16 21 -8 71 -1 71 11 0 14 -72 19 -80 5z"/>
<path d="M5842 4448 c5 -15 77 -18 81 -3 1 6 -18 11 -42 13 -32 2 -42 0 -39
-10z"/>
<path d="M5810 4385 c0 -25 5 -45 10 -45 6 0 10 20 10 45 0 25 -4 45 -10 45
-5 0 -10 -20 -10 -45z"/>
<path d="M6350 4125 c0 -25 5 -45 10 -45 6 0 10 20 10 45 0 25 -4 45 -10 45
-5 0 -10 -20 -10 -45z"/>
<path d="M6255 4070 c-4 -6 12 -10 40 -10 28 0 44 4 40 10 -3 6 -21 10 -40 10
-19 0 -37 -4 -40 -10z"/>
<path d="M6380 4070 c0 -5 21 -10 46 -10 27 0 43 4 39 10 -3 6 -24 10 -46 10
-21 0 -39 -4 -39 -10z"/>
<path d="M2198 4063 c-39 -9 -14 -21 50 -25 76 -4 81 -3 55 10 -23 12 -82 20
-105 15z"/>
<path d="M1911 4049 c-13 -5 -22 -11 -19 -14 8 -8 138 8 138 16 0 12 -89 10
-119 -2z"/>
<path d="M6350 4005 c0 -25 5 -45 10 -45 6 0 10 20 10 45 0 25 -4 45 -10 45
-5 0 -10 -20 -10 -45z"/>
<path d="M3441 4014 c0 -11 3 -14 6 -6 3 7 2 16 -1 19 -3 4 -6 -2 -5 -13z"/>
<path d="M1955 3981 c-6 -21 3 -51 16 -51 16 0 28 35 18 53 -13 22 -26 22 -34
-2z"/>
<path d="M2204 3986 c-9 -23 0 -51 16 -51 10 0 15 10 15 29 0 32 -21 47 -31
22z"/>
<path d="M942 3796 c-81 -331 -116 -554 -111 -704 4 -89 7 -106 24 -118 73
-54 250 -43 600 35 80 18 77 9 58 174 -10 82 -22 147 -28 147 -5 0 -89 -20
-185 -44 l-175 -44 -8 46 c-5 26 -9 179 -10 339 l-2 293 -31 -6 c-17 -3 -47
-1 -66 4 l-34 9 -32 -131z"/>
<path d="M2373 3822 c-12 -7 -33 -54 -33 -73 0 -17 47 -9 65 11 31 34 5 86
-32 62z"/>
<path d="M2315 3707 c-29 -41 -13 -43 39 -4 18 13 18 14 -3 20 -15 3 -26 -1
-36 -16z"/>
<path d="M5452 3590 c-38 -25 -53 -28 -107 -27 -51 1 -67 -2 -85 -18 -19 -18
-21 -26 -16 -76 7 -61 2 -71 -47 -83 -61 -14 -62 -110 -2 -149 34 -22 35 -24
37 -97 1 -41 2 -91 2 -111 0 -31 2 -35 21 -32 17 4 20 10 17 40 -6 50 21 39
29 -12 8 -50 56 -95 102 -95 46 0 88 37 96 86 5 33 10 39 31 39 20 0 26 -7 31
-35 9 -42 59 -90 95 -90 33 0 81 25 94 49 5 11 10 33 10 49 0 18 6 32 16 36
12 5 14 0 10 -29 -5 -32 -4 -35 19 -35 20 0 25 5 25 25 0 32 33 65 65 65 24 0
25 2 25 68 0 44 6 81 16 102 14 28 15 40 5 86 -15 65 -53 108 -107 122 -21 6
-57 15 -79 21 -23 6 -65 31 -94 56 -98 84 -137 92 -209 45z m214 -261 c49 -13
84 -48 84 -84 0 -12 14 -39 30 -60 17 -21 28 -45 25 -53 -3 -7 -5 -20 -5 -27
0 -21 -39 -40 -53 -26 -14 14 -164 15 -172 1 -8 -14 -82 -13 -91 1 -5 8 -38
10 -106 7 -111 -6 -120 -1 -94 51 9 16 16 46 16 66 0 27 8 44 29 66 26 25 37
29 88 29 32 0 85 9 118 20 72 23 74 23 131 9z m-180 -274 c9 -22 -4 -63 -26
-85 -28 -28 -90 -27 -117 3 -22 24 -37 72 -28 87 4 6 42 10 86 10 62 0 81 -3
85 -15z m262 -18 c11 -95 -126 -123 -163 -33 -25 59 -14 67 79 64 81 -3 81 -3
84 -31z"/>
<path d="M5343 3140 c-30 -12 -20 -42 11 -34 13 3 47 6 77 7 40 2 54 6 54 17
0 11 -14 15 -60 17 -33 1 -70 -2 -82 -7z"/>
<path d="M5586 3142 c-10 -17 11 -27 64 -29 30 -2 64 -4 74 -5 30 -4 31 21 1
32 -31 12 -132 13 -139 2z"/>
<path d="M5380 3030 c0 -25 4 -31 18 -28 11 2 17 12 17 28 0 16 -6 26 -17 28
-14 3 -18 -3 -18 -28z"/>
<path d="M5636 3045 c-7 -20 3 -45 19 -45 16 0 26 25 19 45 -4 8 -12 15 -19
15 -7 0 -15 -7 -19 -15z"/>
<path d="M3505 3541 c-102 -38 -217 -104 -291 -165 -46 -39 -122 -161 -164
-264 -15 -37 -53 -143 -85 -235 l-58 -169 37 -71 c20 -40 65 -117 99 -172 l62
-100 -4 -636 -3 -636 47 -12 48 -12 -7 -117 -7 -117 160 0 159 0 15 -52 c8
-29 12 -55 9 -58 -3 -2 -179 -5 -392 -5 l-388 0 -6 23 c-3 12 -6 32 -6 44 0
18 -5 22 -22 20 -19 -2 -24 3 -26 33 -2 19 -12 66 -23 105 -21 79 -23 132 -5
190 9 32 9 54 -1 105 -22 116 -170 761 -176 767 -3 3 -34 -2 -68 -11 -120 -30
-306 -41 -467 -27 -81 6 -178 18 -215 25 -37 7 -69 10 -71 7 -10 -16 -118
-492 -137 -601 -12 -69 -24 -132 -27 -140 -13 -38 -52 317 -52 480 0 49 5 145
11 213 24 267 -36 456 -153 488 -49 13 -109 -12 -155 -65 -73 -82 -98 -171
-97 -341 l2 -120 57 -145 c62 -159 182 -398 292 -585 l71 -120 -9 -64 c-5 -36
-11 -66 -13 -68 -11 -11 -224 264 -367 472 -100 145 -270 443 -356 622 -52
111 -83 150 -83 108 0 -15 137 -297 188 -385 60 -105 179 -301 225 -370 75
-114 242 -334 319 -421 l69 -79 -7 -79 -7 -80 -319 -3 -320 -3 -23 -28 c-54
-61 -38 -154 30 -183 30 -12 420 -14 2946 -12 l2911 3 29 33 c42 46 41 108 -2
157 -28 31 -37 35 -79 35 -27 0 -51 3 -53 7 -3 5 -8 28 -12 53 -6 42 -4 46 22
61 64 37 349 224 355 233 19 28 -13 37 -41 12 -28 -24 -332 -216 -343 -216
-16 0 1 90 24 129 26 42 99 89 205 131 90 35 152 82 176 132 40 85 27 219 -30
318 -80 138 -84 170 -33 325 20 62 34 129 38 177 12 187 -89 321 -210 279
-118 -41 -193 -128 -253 -295 -10 -26 -32 -64 -49 -84 l-31 -35 -6 29 c-4 16
-7 115 -8 221 -1 168 1 192 14 187 32 -13 106 7 141 38 40 36 60 69 73 127 8
37 7 41 -10 41 -41 0 -136 -45 -173 -82 -21 -21 -40 -37 -42 -35 -4 4 11 216
22 306 l7 53 42 -5 c88 -12 154 27 199 118 l25 50 -30 3 c-47 5 -135 -17 -174
-44 -20 -13 -38 -24 -40 -24 -10 0 48 187 77 245 32 65 35 68 88 86 63 20 104
60 119 116 12 41 15 113 5 113 -3 0 -33 -14 -65 -32 -73 -38 -115 -84 -129
-140 -5 -24 -19 -61 -30 -83 -10 -22 -29 -62 -40 -90 l-22 -50 -13 38 c-16 48
-38 72 -94 109 -67 42 -74 39 -66 -29 14 -120 57 -196 125 -218 13 -4 19 -12
16 -23 -11 -37 -35 -181 -42 -249 -3 -40 -9 -73 -11 -73 -2 0 -16 14 -31 32
-30 35 -86 63 -149 73 -51 8 -53 2 -19 -70 43 -93 104 -145 171 -145 l25 0 0
-120 c0 -66 -4 -120 -8 -120 -5 0 -17 10 -28 21 -10 12 -37 30 -59 39 -40 18
-135 36 -135 26 0 -3 11 -29 24 -59 41 -93 114 -157 180 -157 l26 0 0 -104 c0
-57 3 -111 6 -119 4 -10 -12 -25 -50 -47 -104 -59 -152 -104 -185 -174 -37
-76 -39 -126 -12 -241 33 -137 31 -173 -10 -220 -29 -33 -32 -44 -45 -158 -8
-67 -21 -162 -30 -212 -8 -49 -18 -106 -21 -125 -3 -19 -11 -38 -17 -42 -6 -4
-207 -8 -446 -8 l-435 0 0 92 0 93 -334 5 -334 5 -13 45 c-8 25 -12 50 -10 56
6 15 109 74 130 74 9 0 16 -7 16 -16 0 -20 45 -82 84 -115 l31 -26 100 29
c186 55 230 70 366 124 76 30 141 54 146 54 5 0 31 -31 57 -69 78 -115 170
-182 268 -197 54 -8 41 8 -22 25 -91 26 -181 103 -253 217 l-27 45 21 8 c19 6
30 -1 68 -44 47 -53 89 -85 112 -85 8 0 -4 15 -26 32 -57 47 -105 98 -105 111
0 7 21 23 46 36 47 26 193 165 299 285 33 38 69 79 80 91 11 12 36 41 54 66
19 24 39 49 45 54 16 14 115 149 163 220 114 171 109 383 -10 455 -18 11 -35
20 -39 20 -4 0 -47 -57 -97 -127 -379 -535 -558 -754 -664 -813 -57 -32 -58
-32 -64 -11 -8 30 -23 26 -23 -7 0 -27 -8 -32 -120 -85 -133 -62 -128 -64
-110 34 6 30 12 77 14 104 3 28 11 109 20 180 14 117 37 456 31 463 -1 1 -17
-55 -35 -125 -54 -210 -123 -390 -176 -460 -14 -18 -59 -59 -102 -91 -87 -67
-244 -174 -247 -170 -4 5 -18 913 -16 1019 1 22 6 26 31 27 61 2 170 49 245
105 l41 31 -72 151 c-39 82 -120 260 -178 395 -58 135 -116 265 -128 290 -35
69 -150 146 -300 201 -67 24 -124 45 -128 47 -4 2 -10 -6 -13 -17 -6 -26 -93
-81 -126 -81 -35 0 -83 30 -117 74 -16 20 -33 36 -39 35 -5 0 -55 -17 -110
-38z"/>
<path d="M1694 3332 c-21 -14 -25 -45 -8 -63 32 -36 74 -17 74 32 0 33 -37 51
-66 31z"/>
<path d="M2398 3289 c-34 -19 -16 -79 23 -79 21 0 49 26 49 45 0 17 -27 45
-43 45 -7 0 -20 -5 -29 -11z"/>
<path d="M2632 3167 c-34 -163 -55 -261 -96 -452 -20 -93 -39 -181 -42 -195
-6 -31 43 -179 87 -260 56 -106 109 -136 187 -109 25 9 32 17 38 52 3 23 24
107 45 186 22 79 37 146 35 148 -2 3 -22 -5 -45 -16 l-40 -21 -11 38 c-20 73
-72 350 -100 541 -16 106 -30 195 -32 196 -2 2 -14 -47 -26 -108z"/>
<path d="M1600 3116 c-28 -35 11 -93 48 -70 35 22 22 84 -18 84 -10 0 -23 -7
-30 -14z"/>
<path d="M2441 3056 c-17 -21 -6 -63 19 -71 34 -11 62 12 58 48 -3 28 -7 32
-34 35 -19 2 -36 -3 -43 -12z"/>
<path d="M1876 3014 c-9 -8 -16 -22 -16 -29 0 -7 7 -21 16 -29 30 -30 74 -13
74 29 0 42 -44 59 -74 29z"/>
<path d="M2219 3013 c-21 -5 -31 -41 -18 -65 11 -20 49 -24 67 -6 24 24 7 80
-22 77 -6 -1 -18 -3 -27 -6z"/>
<path d="M1680 2870 c-16 -30 4 -60 40 -60 32 0 46 25 35 60 -4 14 -15 20 -35
20 -19 0 -33 -7 -40 -20z"/>
<path d="M2057 2823 c-12 -12 -7 -60 8 -73 33 -27 73 8 61 53 -5 21 -12 27
-35 27 -15 0 -31 -3 -34 -7z"/>
<path d="M2328 2715 c-10 -22 -9 -29 10 -47 18 -19 25 -20 47 -10 16 8 25 20
25 35 0 50 -62 66 -82 22z"/>
<path d="M1777 2654 c-4 -4 -7 -20 -7 -36 0 -21 6 -31 23 -37 35 -14 59 5 55
42 -3 27 -7 32 -33 35 -17 2 -34 0 -38 -4z"/>
<path d="M2069 2523 c-9 -24 -7 -30 11 -45 26 -21 64 -10 68 21 8 52 -60 73
-79 24z"/>
<path d="M5680 2448 c-49 -44 -136 -88 -175 -88 -14 0 -25 -4 -25 -10 0 -26
94 -3 154 37 71 47 126 104 99 103 -5 -1 -28 -19 -53 -42z"/>
<path d="M2290 2465 c-17 -20 -5 -62 21 -70 24 -8 59 19 59 45 0 37 -55 55
-80 25z"/>
<path d="M1810 2406 c-28 -35 11 -93 48 -70 35 22 22 84 -18 84 -10 0 -23 -7
-30 -14z"/>
<path d="M2080 2240 c-16 -30 4 -60 41 -60 33 0 44 17 35 55 -8 32 -60 36 -76
5z"/>
<path d="M1792 2128 c-7 -7 -12 -21 -12 -33 0 -45 60 -63 80 -24 23 41 -35 90
-68 57z"/>
<path d="M2307 2122 c-30 -33 -15 -72 28 -72 44 0 63 60 26 80 -27 14 -35 13
-54 -8z"/>
</g>
</svg>
